<?xml version="1.0" encoding="utf-8"?>
<!-- Generator: Adobe Illustrator 27.8.1, SVG Export Plug-In . SVG Version: 6.00 Build 0)  -->
<svg version="1.1" id="Layer_2_00000133529212011622450250000011776242119372928650_"
	 xmlns="http://www.w3.org/2000/svg" xmlns:xlink="http://www.w3.org/1999/xlink" x="0px" y="0px" viewBox="0 0 299.5 156.5"
	 style="enable-background:new 0 0 299.5 156.5;" xml:space="preserve">
<g>
	<polygon points="91.5,81.4 70.8,81.4 73.2,45.5 59.8,81.4 40.6,81.4 71,0.2 91.5,0.2 89.1,36.7 102.8,0.2 122,0.2 	"/>
	<polygon points="94,81.4 124.5,0.2 143.7,0.2 113.2,81.4 	"/>
	<path d="M38.4,53.5C11.5,85-13.8,126.9,8.6,146.2c21.7,18.7,48.7,7.6,67.2,0.2s222.5-96,222.5-96c2-1,1.6-2.2-0.9-1.6
		c-1,0.2-222.1,60.2-222.1,60.2C47.2,116.9,15.3,99.7,38.4,53.5L38.4,53.5z"/>
	<path d="M50.9,100.2c0.6,0,1.1-0.3,1.1-1.2c0-1.1-0.7-1.3-1.9-1.3h-1.7v4.4h1.1v-1.9h0.2l1,1.9h1.3L50.9,100.2L50.9,100.2z
		 M50.2,99.5h-0.6v-1h0.5c0.3,0,0.7,0,0.7,0.5C50.8,99.4,50.6,99.5,50.2,99.5z"/>
	<path d="M243.1,0c-2.4,0-4.2,1.7-4.2,4.1s1.9,4.1,4.2,4.1s4.2-1.7,4.2-4.1C247.4,1.7,245.5,0,243.1,0z M243.1,7
		c-1.7,0-2.9-1.2-2.9-2.9s1.2-2.9,2.9-2.9s2.9,1.3,2.9,2.9S244.8,7,243.1,7z"/>
	<path d="M243.9,4.4c0.6,0,1.1-0.3,1.1-1.2c0-1.1-0.7-1.3-1.9-1.3h-1.7v4.4h1.1V4.4h0.2l1,1.9h1.3L243.9,4.4L243.9,4.4z M243.2,3.7
		h-0.6v-1h0.5c0.3,0,0.7,0,0.7,0.5C243.8,3.6,243.6,3.7,243.2,3.7z"/>
	<path d="M230.5,13.8l5.2-13.5h-58.6L157,24.6l9.3-24.4h-19.4l-30.2,81.2h19.2l12.9-34l0.9,34l58.9-0.1l5.6-15.6h-22.4l7.4-19.7
		h18.5l5.7-15.1h-18.5l6.3-17.1L230.5,13.8L230.5,13.8z M168.6,76l-1.2-42.3l29-31.9L168.6,76L168.6,76z"/>
</g>
</svg>
